<?xml version="1.0" encoding="UTF-8"?>
<svg id="Layer_1" data-name="Layer 1" xmlns="http://www.w3.org/2000/svg" viewBox="0 0 756.72 342.7">
  <defs>
    <style>
      .cls-1 {
        stroke-width: .25px;
      }

      .cls-1, .cls-2 {
        fill: none;
        stroke: #fff;
        stroke-miterlimit: 10;
      }

      .cls-3 {
        fill: #fff;
        stroke-width: 0px;
      }
    </style>
  </defs>
  <path class="cls-1" d="M469.24,50.59c-4.41,2.73-7.98,6.8-11.5,10.75-7.5,8.44-15.85,15.64-23.77,23.46-5.87,5.79-11.87,11.42-17.74,17.22-7.49,7.38-14.89,14.86-22.35,22.26-5.91,5.86-11.82,11.71-17.77,17.5-5.8,5.66-11.83,11.03-17.44,16.95-5.41,5.71-11.08,11.08-16.49,16.78-9.42,9.92-18.79,19.84-28.67,29.18-8.03,7.61-16.43,14.79-23.84,23.32-3.33,3.84-7.46,6.47-11.3,9.55-6.25,5.01-11.79,11.19-18.55,15.32-1.58.96-2.97,2.39-4.84,2.54"/>
  <path class="cls-1" d="M614.07,109.64c-2.45-.12-3.54,2.48-5.05,3.92-12.32,11.91-24.46,24.12-36.68,36.18-14.87,14.68-29.8,29.29-44.68,43.94-9.7,9.55-19.38,19.1-29.07,28.64-14.89,14.65-29.8,29.29-44.68,43.93-9.7,9.55-19.26,19.29-29.13,28.56-4.2,3.96-7.7,9.08-12.86,11.56-2.8,5.37-7.83,7.91-11.3,12.41"/>
  <path class="cls-1" d="M756.72,284.73c-9.6,0-19.21-.1-28.81.04-5.22.07-10.41-.41-15.61-.66-7.5-.39-14.79,1.68-22.04,3.31-5.12,1.15-10.28,2.25-15.37,3.64-4.63,1.26-9.3,2.4-14.01,3.15-2.96.46-5.91,1.06-8.87,1.3-3.65.3-7.16,1.51-10.74,2.17-1.95.36-4.07.75-5.96.88-7.42.54-14.9,1.12-22.33.12-8.01-1.08-15.85-3.25-23.44-6.58-5.96-2.62-12-4.95-18.04-7.32-1-.39-2.15-.25-3.22-.36"/>
  <path class="cls-1" d="M560.76,284.09c-10.8-.25-21.55.49-32.3,1.4-7.42.62-14.66,2.94-21.84,5.51-8.97,3.2-18.08,5.82-26.9,9.6-6.81,2.92-13.03,7.19-19.35,11.23-7.06,4.51-14.43,7.6-22.35,9.29-6.01,1.29-12.03,2.77-18.06,3.55-7.85,1.02-15.76,1.36-23.69-.38-5.22-1.14-10.45-2.16-15.58-3.66-8.73-2.58-17.38-5.59-25.84-9.25-9.71-4.22-19.66-5.1-29.9-4.51-7.06.41-13.94,1.34-20.44,4.61-11.37,5.73-21.29,13.7-28.01,26.39-.68,1.29-.94,2.66-.81,4.14"/>
  <path class="cls-1" d="M176.37,303.83c-3.87-.31-7.36-2.29-11.03-3.51-7.4-2.47-14.39-6.39-22.06-8.08-6.03-1.34-12.03-1.63-18.05-1.33-2.85.14-5.76.31-8.63.66-5.3.64-10.39,2.28-15.58,3.43-8.13,1.8-16.18,4.03-24.23,6.32-5.82,1.67-11.62,3.38-17.51,4.72-5.43,1.23-10.84,2.02-16.42,1.34-6.6-.8-13.22-1.53-19.63-3.61-6.42-2.09-12.74-4.68-19.14-6.91-1.49-.51-1.94-2.89-3.75-2.6"/>
  <path class="cls-1" d="M536.26,147.21c-.78,1.79-2.02,3.12-3.24,4.44-8.3,8.94-16.49,17.96-25.74,25.65-6.61,5.51-12.45,12.39-18.36,18.98-6.28,7-12.03,14.65-18.41,21.52-6.01,6.47-11.19,13.97-17.46,20.11-8.93,8.75-17.48,18.02-26.62,26.47-6.43,5.97-12.71,12.14-19.14,18.1-3.33,3.08-6.78,6.04-10.27,8.86-7.66,6.19-14.19,13.59-19.32,22.7-.75,1.34-1.52,2.71-1.35,4.45"/>
  <path class="cls-1" d="M322.54,16.99c-2.98.22-5.32,1.87-7.27,4.45-6.63,8.75-14.01,16.62-21.6,24.11-12.63,12.44-24.3,26.26-37.87,37.36-7.69,6.28-15.25,12.74-22.89,19.08-8.9,7.38-16.91,16.01-24.45,25.21-3.92,4.8-7.95,9.48-11.68,14.53-4.42,6-9,11.84-14.2,16.95-6.74,6.6-13.17,13.63-20.47,19.4"/>
  <path class="cls-1" d="M419.7,58.23c-2.79,3.12-5.51,6.34-8.35,9.38-5.54,5.9-11.28,11.53-17.17,16.93-5.28,4.84-10.39,9.96-15.36,15.26-9.39,10.04-18.43,20.5-28.47,29.71-7.99,7.3-15.79,14.97-23.28,23.05-7.13,7.69-13.88,15.89-21.44,23.05-4.48,4.25-9.12,8.26-13.53,12.63-4.6,4.56-9.35,8.89-13.96,13.42-2.25,2.2-4.28,4.71-6.5,6.96-.94.95-1.72,2.35-3.21,2.25"/>
  <path class="cls-1" d="M573.96,272.32c11.19-19.22,22.87-38.05,32.94-58.19,6.75-13.49,12.79-27.35,18.4-41.5,2.66-6.71,4.77-13.76,6.96-20.7,1.48-4.69,1.6-9.78.5-14.94-.66-3.05-1.12-5.93-3.04-8.28-1.49-1.82-2.31-4.22-2.68-6.67-.71-4.82-3.7-7.25-6.82-9.47-1.02-.72-2.94-1.63-2.92,1.51"/>
  <path class="cls-1" d="M362.64,296.82c-.89-.16-2.03.54-2.66-.34-3.74-5.26-9.29-8.26-12.45-14.26-2.82-5.34-6.7-9.82-11.34-12.58-4.8-2.85-9.21-6.81-14.47-8.4-6.78-2.05-13.62-3.76-20.71-3.97-7.71-.22-15.11,1.68-22.64,3.09-6.9,1.3-13.59,4.17-20.71,4.04-1.03-.01-2.07.79-3.1,1.22"/>
  <path class="cls-1" d="M265.75,195.59c-1.8.19-1.7-1.49-2.19-2.84-3.88-10.45-10.04-17.8-19.88-20.11-4.9-1.15-9.83-1.53-14.81-1.59-5.83-.05-11.68-.51-17.49-.25-14.41.65-28.14,4.37-40.37,13.97-.78.62-1.56,1.18-2.44,1.56"/>
  <path class="cls-1" d="M422.14,40.24c.39-2.27-.81-3.97-1.65-5.71-1.97-4.1-4.19-8.03-6.14-12.13-2.37-4.99-6.09-7.92-10.53-9.47-4.23-1.45-8.31-3.39-12.6-4.65-4.58-1.34-9.18-1.17-13.76-1.36-4.11-.18-8.25.73-12.39.8-7.04.12-14.01,1.25-20.98,2.06-4.19.5-8.29,2.08-12.12,4.34"/>
  <path class="cls-1" d="M551.35,120.78c3.04-3.86,3.32-8.99,4.62-13.67,1.74-6.3-.1-12.05-1.71-17.81-.59-2.12-1.1-4.23-1.55-6.39-1.59-7.57-6.68-11.75-11.22-16.66-6-6.49-13.56-8.45-20.83-11.29-4.98-1.94-9.82-4.64-15.05-5.41-3.99-.6-8.06-.5-12.11-.72"/>
  <path class="cls-1" d="M266.81,308.93c-7.49-3.91-15.51-3.7-23.42-4.11-6.33-.31-12.43,1.75-18.58,3.12-7.67,1.71-15.25,4.29-23.14,4.11-2.52-.05-5.02-.38-7.55.05"/>
  <path class="cls-1" d="M260.36.12c-1.69.08-2.89,1.29-4.03,2.56-3.98,4.42-8.03,8.76-11.37,13.95-1.73,2.69-4.3,4.47-6.59,6.54-7.04,6.31-14.05,12.81-19.42,21.26-2.02,3.19-4.63,5.58-6.77,8.55-1.81,2.52-3.79,4.94-3.78,8.59"/>
  <path class="cls-1" d="M262.65,5.22c1.74,3.62,5.29,4.6,7.72,7.26,2.39,2.63,4.95,5.06,6.65,8.36,2.98,5.74,2.17,10.54-1.35,14.9-2.4,2.97-5.16,5.56-7.77,8.32-1.34,1.4-2.76,2.69-4.02,4.15-4.69,5.48-10.92,8.47-15.74,13.85-1.93,2.16-3.01,5.13-5.28,6.82-3.16,2.36-6.08,5.41-9.28,7.35-3.01,1.83-7.07,3.2-10.67-.26-2.43-2.32-5.37-3.91-7.23-7.06-.22-.36-.52-.88-.8-.92-2.98-.31-4.31-3.09-5.93-5.45"/>
  <path class="cls-1" d="M235.59,15.4c-2.26.71-3.78-1.12-5.06-2.62-4.55-5.3-10.52-6.99-16.17-9.56-.98-.45-1.65.36-2.55.04-.45,2.12.05,3.99.91,5.77,3.33,6.88,7.64,13.02,10.73,20.08.5,1.15,1.2.88,1.91.94"/>
  <path class="cls-2" d="M468.99,51.22c-4.41,2.73-7.98,6.8-11.5,10.75-7.5,8.44-15.85,15.64-23.77,23.46-5.87,5.79-11.87,11.42-17.74,17.22-7.49,7.38-14.89,14.86-22.35,22.26-5.91,5.86-11.82,11.71-17.77,17.5-5.8,5.66-11.83,11.03-17.44,16.95-5.41,5.71-11.08,11.08-16.49,16.78-9.42,9.92-18.79,19.84-28.67,29.18-8.03,7.61-16.43,14.79-23.84,23.32-3.33,3.84-7.46,6.47-11.3,9.55-6.25,5.01-11.79,11.19-18.55,15.32-1.58.96-2.97,2.39-4.84,2.54"/>
  <path class="cls-2" d="M613.81,110.28c-2.45-.12-3.54,2.48-5.05,3.92-12.32,11.91-24.46,24.12-36.68,36.18-14.87,14.68-29.8,29.29-44.68,43.94-9.7,9.55-19.38,19.1-29.07,28.64-14.89,14.65-29.8,29.29-44.68,43.93-9.7,9.55-19.26,19.29-29.13,28.56-4.2,3.96-7.7,9.08-12.86,11.56-2.8,5.37-7.83,7.91-11.3,12.41"/>
  <path class="cls-2" d="M756.47,285.37c-9.6,0-19.21-.1-28.81.04-5.22.07-10.41-.41-15.61-.66-7.5-.39-14.79,1.68-22.04,3.31-5.12,1.15-10.28,2.25-15.37,3.64-4.63,1.26-9.3,2.4-14.01,3.15-2.96.46-5.91,1.06-8.87,1.3-3.65.3-7.16,1.51-10.74,2.17-1.95.36-4.07.75-5.96.88-7.42.54-14.9,1.12-22.33.12-8.01-1.08-15.85-3.25-23.44-6.58-5.96-2.62-12-4.95-18.04-7.32-1-.39-2.15-.25-3.22-.36"/>
  <path class="cls-2" d="M560.5,284.73c-10.8-.25-21.55.49-32.3,1.4-7.42.62-14.66,2.94-21.84,5.51-8.97,3.2-18.08,5.82-26.9,9.6-6.81,2.92-13.03,7.19-19.35,11.23-7.06,4.51-14.43,7.6-22.35,9.29-6.01,1.29-12.03,2.77-18.06,3.56-7.85,1.02-15.76,1.36-23.69-.38-5.22-1.14-10.45-2.16-15.58-3.66-8.73-2.58-17.38-5.59-25.84-9.25-9.71-4.22-19.66-5.1-29.9-4.51-7.06.41-13.94,1.34-20.44,4.61-11.37,5.73-21.29,13.7-28.01,26.39-.68,1.29-.94,2.66-.81,4.14"/>
  <path class="cls-2" d="M176.12,304.47c-3.87-.31-7.36-2.29-11.03-3.51-7.4-2.47-14.39-6.39-22.06-8.08-6.03-1.34-12.03-1.63-18.05-1.33-2.85.14-5.76.31-8.63.66-5.3.64-10.39,2.28-15.58,3.43-8.13,1.8-16.18,4.03-24.23,6.32-5.82,1.67-11.62,3.38-17.51,4.72-5.43,1.23-10.84,2.02-16.42,1.34-6.6-.8-13.22-1.53-19.63-3.61-6.42-2.09-12.74-4.68-19.14-6.91-1.49-.51-1.94-2.89-3.75-2.6"/>
  <path class="cls-2" d="M536.02,147.85c-.78,1.79-2.02,3.12-3.24,4.44-8.3,8.94-16.49,17.96-25.74,25.65-6.61,5.51-12.45,12.39-18.36,18.98-6.28,7-12.03,14.65-18.41,21.52-6.01,6.47-11.19,13.97-17.46,20.11-8.93,8.75-17.48,18.02-26.62,26.47-6.43,5.97-12.71,12.14-19.14,18.1-3.33,3.08-6.78,6.04-10.27,8.86-7.66,6.19-14.19,13.59-19.32,22.7-.75,1.34-1.52,2.71-1.35,4.45"/>
  <path class="cls-2" d="M322.29,17.65c-2.98.22-5.32,1.87-7.27,4.45-6.63,8.75-14.01,16.62-21.6,24.11-12.63,12.44-24.3,26.26-37.87,37.36-7.69,6.28-15.25,12.74-22.89,19.08-8.9,7.38-16.91,16.01-24.45,25.21-3.92,4.8-7.95,9.48-11.68,14.53-4.42,6-9,11.84-14.2,16.95-6.74,6.6-13.17,13.63-20.47,19.4"/>
  <path class="cls-2" d="M419.46,58.86c-2.79,3.12-5.51,6.34-8.35,9.38-5.54,5.9-11.28,11.53-17.17,16.93-5.28,4.84-10.39,9.96-15.36,15.26-9.39,10.04-18.43,20.5-28.47,29.71-7.99,7.3-15.79,14.97-23.28,23.05-7.13,7.69-13.88,15.89-21.44,23.05-4.48,4.25-9.12,8.26-13.53,12.63-4.6,4.56-9.35,8.89-13.96,13.42-2.25,2.2-4.28,4.71-6.5,6.96-.94.95-1.72,2.35-3.21,2.25"/>
  <path class="cls-2" d="M573.7,272.95c11.19-19.22,22.87-38.05,32.94-58.19,6.75-13.49,12.79-27.35,18.4-41.5,2.66-6.71,4.77-13.76,6.96-20.7,1.48-4.69,1.6-9.78.5-14.94-.66-3.05-1.12-5.93-3.04-8.28-1.49-1.82-2.31-4.22-2.68-6.67-.71-4.82-3.7-7.25-6.82-9.47-1.02-.72-2.94-1.63-2.92,1.51"/>
  <path class="cls-2" d="M362.39,297.47c-.89-.16-2.03.54-2.66-.34-3.74-5.26-9.29-8.26-12.45-14.26-2.82-5.34-6.7-9.82-11.34-12.58-4.8-2.85-9.21-6.81-14.47-8.4-6.78-2.05-13.62-3.76-20.71-3.97-7.71-.22-15.11,1.68-22.64,3.09-6.9,1.3-13.59,4.17-20.71,4.04-1.03-.01-2.07.79-3.1,1.22"/>
  <path class="cls-2" d="M265.48,196.23c-1.8.19-1.7-1.49-2.19-2.84-3.88-10.45-10.04-17.8-19.88-20.11-4.9-1.15-9.83-1.53-14.81-1.59-5.83-.05-11.68-.51-17.49-.25-14.41.65-28.14,4.37-40.37,13.97-.78.62-1.56,1.18-2.44,1.56"/>
  <path class="cls-2" d="M421.88,40.87c.39-2.27-.81-3.97-1.65-5.71-1.97-4.1-4.19-8.03-6.14-12.13-2.37-4.99-6.09-7.92-10.53-9.47-4.23-1.45-8.31-3.39-12.6-4.65-4.58-1.34-9.18-1.17-13.76-1.36-4.11-.18-8.25.73-12.39.8-7.04.12-14.01,1.25-20.98,2.06-4.19.5-8.29,2.08-12.12,4.34"/>
  <path class="cls-2" d="M551.08,121.42c3.04-3.86,3.32-8.99,4.62-13.67,1.74-6.3-.1-12.05-1.71-17.81-.59-2.12-1.1-4.23-1.55-6.39-1.59-7.57-6.68-11.75-11.22-16.66-6-6.49-13.56-8.45-20.83-11.29-4.98-1.94-9.82-4.64-15.05-5.41-3.99-.6-8.06-.5-12.11-.72"/>
  <path class="cls-2" d="M266.57,309.57c-7.49-3.91-15.51-3.7-23.42-4.11-6.33-.31-12.43,1.75-18.58,3.12-7.67,1.71-15.25,4.29-23.14,4.11-2.52-.05-5.02-.38-7.55.05"/>
  <path class="cls-2" d="M260.1.76c-1.69.08-2.89,1.29-4.03,2.56-3.98,4.42-8.03,8.76-11.37,13.95-1.73,2.69-4.3,4.47-6.59,6.54-7.04,6.31-14.05,12.81-19.42,21.26-2.02,3.19-4.63,5.58-6.77,8.55-1.81,2.52-3.79,4.94-3.78,8.59"/>
  <path class="cls-2" d="M262.39,5.86c1.74,3.62,5.29,4.6,7.72,7.26,2.39,2.63,4.95,5.06,6.65,8.36,2.98,5.74,2.17,10.54-1.35,14.9-2.4,2.97-5.16,5.56-7.77,8.32-1.34,1.4-2.76,2.69-4.02,4.15-4.69,5.48-10.92,8.47-15.74,13.85-1.93,2.16-3.01,5.13-5.28,6.82-3.16,2.36-6.08,5.41-9.28,7.35-3.01,1.83-7.07,3.2-10.67-.26-2.43-2.32-5.37-3.91-7.23-7.06-.22-.36-.52-.88-.8-.92-2.98-.31-4.31-3.09-5.93-5.45"/>
  <path class="cls-2" d="M235.34,16.05c-2.26.71-3.78-1.12-5.06-2.62-4.55-5.3-10.52-6.99-16.17-9.56-.98-.45-1.65.36-2.55.04-.45,2.12.05,3.99.91,5.77,3.33,6.88,7.64,13.02,10.73,20.08.5,1.15,1.2.88,1.91.94"/>
  <path class="cls-3" d="M254.3,62.02c3.25,3.57,6.56,7.09,9.93,10.55.56.58,1.45-.31.88-.88-3.37-3.46-6.68-6.98-9.93-10.55-.54-.6-1.43.29-.88.88h0Z"/>
  <path class="cls-3" d="M265.3,49.92c3.25,3.57,6.56,7.09,9.93,10.55.56.58,1.45-.31.88-.88-3.37-3.46-6.68-6.98-9.93-10.55-.54-.6-1.43.29-.88.88h0Z"/>
  <path class="cls-3" d="M336.98,141c3.08,8.16,8.6,15.25,15.84,20.13.67.45,1.3-.63.63-1.08-6.95-4.69-12.31-11.54-15.26-19.38-.28-.75-1.49-.42-1.21.33h0Z"/>
  <path class="cls-3" d="M351.31,129.36c3.08,8.16,8.6,15.25,15.84,20.13.67.45,1.3-.63.63-1.08-6.95-4.69-12.31-11.54-15.26-19.38-.28-.75-1.49-.42-1.21.33h0Z"/>
  <path class="cls-3" d="M462.71,226.51c2.85,2.3,5.44,4.93,7.62,7.87,1.04,1.41,1.99,2.88,2.84,4.41.67,1.2,2.31,3.54,1.13,4.84-.54.6.34,1.48.88.88,1.2-1.33.73-3.05.03-4.51-.88-1.84-1.94-3.6-3.11-5.27-2.39-3.43-5.27-6.48-8.52-9.11-.62-.5-1.51.38-.88.88h0Z"/>
  <path class="cls-3" d="M454.86,239.69c.5,2.37,2.3,4.05,3.85,5.79,1.8,2,3.1,4.35,3.83,6.93.22.77,1.43.44,1.21-.33-.72-2.52-1.95-4.87-3.63-6.88-1.52-1.81-3.54-3.41-4.05-5.83-.17-.79-1.37-.45-1.21.33h0Z"/>
</svg>